<svg width="159" height="32" viewBox="0 0 159 32" fill="none" xmlns="http://www.w3.org/2000/svg">
<mask id="mask0_4426_26236" style="mask-type:luminance" maskUnits="userSpaceOnUse" x="0" y="0" width="159" height="32">
<path d="M158.452 0H0V31.6905H158.452V0Z" fill="white"/>
</mask>
<g mask="url(#mask0_4426_26236)">
<path fill-rule="evenodd" clip-rule="evenodd" d="M25.2796 3.75315L24.4984 3.31815L24.46 3.69852L23.2781 3.58319L23.3105 2.29842C20.9752 0.845711 18.217 0.00402832 15.2604 0.00402832C12.3038 0.00402832 9.75199 0.782989 7.47135 2.13858L9.44846 2.175H14.1352L13.4877 1.1836L15.3555 1.48911L15.7744 2.21344L16.6891 1.10874H16.9178L18.1381 2.10013L19.0528 1.22406L20.7668 1.87151L20.7283 3.01465L19.5465 2.74758L18.8221 2.13858L18.0591 3.09154L16.1164 3.16842L14.9731 4.27313L16.1164 5.45472L17.108 4.84572L18.0996 3.58926L19.6234 4.08497L20.4997 4.9226L20.6899 6.06575L19.0507 6.33282L19.0123 7.55286L17.3367 8.16189L15.8513 9.26655L14.5177 10.4845L14.1373 12.3521L13.261 11.6277L11.6988 11.4375L10.1365 12.2367L9.67916 14.0273L11.203 14.1406L11.6219 14.9034L12.7652 15.8563L14.5177 15.2858L16.3471 15.6277L17.794 16.8093L19.1661 17.7623L20.4997 18.9054L22.1752 19.5913L22.3655 21.4588L22.0235 23.1725L18.7856 27.7815L17.6807 28.8862L16.7276 30.2195L15.5073 29.8776L14.7829 28.3156V24.431L13.7163 23.1361L12.4981 21.7259L11.545 20.0506L12.231 16.4309L10.4785 15.5164L8.91625 14.9823L8.07841 13.649L7.43085 12.2387L6.28751 11.4011L5.75326 9.6874L6.62952 7.85835L7.00994 6.1831V4.43095L5.52458 4.54424L3.66889 5.34546C1.38216 8.0061 0 11.472 0 15.2615C0 23.6885 6.8319 30.519 15.2604 30.519C23.689 30.519 30.5208 23.6885 30.5208 15.2615C30.5208 10.6687 28.4911 6.55131 25.2815 3.75517L25.2796 3.75315Z" fill="#080808"/>
<path d="M34.6411 10.6726V8.07479H36.1729C36.4057 8.9104 36.9156 9.3272 37.7352 9.3272C38.3544 9.3272 38.741 9.01764 38.741 8.61498C38.741 8.07276 38.1076 7.94936 36.8387 7.6398C35.2765 7.26953 34.5945 6.88107 34.5945 5.44251C34.5945 4.11322 35.5841 3.24524 37.2091 3.24524C38.0752 3.24524 38.6944 3.5548 39.1275 4.15774V3.43138H40.5967V5.75207H39.1275C39.0182 5.05607 38.4779 4.6069 37.6583 4.6069C37.0694 4.6069 36.7153 4.88611 36.7153 5.28672C36.7153 5.90584 37.4276 5.99891 38.8664 6.30847C40.2426 6.60188 40.8779 7.22098 40.8779 8.48955C40.8779 9.88159 39.8722 10.7941 38.2938 10.7941C37.3183 10.7941 36.6222 10.4542 36.1749 9.75812V10.6706H34.6431L34.6411 10.6726Z" fill="#080808"/>
<path d="M41.7117 9.18772H42.6871V4.82552H41.7117V3.43351H44.6663V4.57868C45.3321 3.66618 46.0889 3.24939 47.0643 3.24939C48.1935 3.24939 49.0596 3.74509 49.4623 4.57868C50.0047 3.65 50.715 3.24939 51.8139 3.24939C53.6554 3.24939 54.3657 4.11535 54.3657 6.00306V9.18968H55.3087V10.6282H51.3322V9.18968H52.3379V6.21955C52.3379 5.23017 51.9353 4.73447 51.1157 4.73447C50.2961 4.73447 49.5676 5.47701 49.5676 6.60602V9.18968H50.543V10.6282H46.5665V9.18968H47.5419V6.21955C47.5419 5.23017 47.1251 4.73447 46.2892 4.73447C45.4069 4.73447 44.7108 5.47701 44.7108 6.60602V9.18968H45.8096V10.6282H41.7097V9.18968L41.7117 9.18772Z" fill="#080808"/>
<path d="M60.8656 10.6261V9.65095C60.2928 10.44 59.536 10.8102 58.4979 10.8102C56.9497 10.8102 55.946 9.86739 55.946 8.50572C55.946 7.00447 57.0145 6.09198 58.9937 6.09198H60.8656V5.53558C60.8656 5.00953 60.3394 4.6069 59.4733 4.6069C58.684 4.6069 58.2348 4.97716 58.1883 5.64281H56.286C56.4094 3.94124 57.3849 3.24524 59.4429 3.24524C61.764 3.24524 62.784 4.00397 62.784 5.78242V9.18554H63.6807V10.6241H60.8656V10.6261ZM59.9529 7.3788C58.684 7.3788 58.0506 7.71871 58.0506 8.36818C58.0506 9.01764 58.4372 9.34336 59.1333 9.34336C60.1391 9.34336 60.8048 8.66353 60.8656 7.42532C60.5256 7.39496 60.216 7.3788 59.9529 7.3788Z" fill="#080808"/>
<path d="M65.4454 1.93225H64.47V0.524048H67.4869V9.18767H68.4928V10.6262H64.4231V9.18767H65.4454V1.93225Z" fill="#080808"/>
<path d="M70.1481 1.93225H69.1726V0.524048H72.1896V9.18767H73.1954V10.6262H69.1257V9.18767H70.1481V1.93225Z" fill="#080808"/>
<path d="M81.0699 8.38235C80.7295 10.0212 79.6311 10.8103 77.7284 10.8103C75.3142 10.8103 73.9382 9.41831 73.9382 7.0369C73.9382 4.65551 75.3307 3.24731 77.575 3.24731C79.8187 3.24731 81.1649 4.56244 81.1649 6.94386C81.1649 7.1603 81.1485 7.37681 81.1345 7.59332H76.0127C76.0127 8.73849 76.6015 9.3576 77.6378 9.3576C78.4104 9.3576 78.9067 9.03182 79.1697 8.38235H81.0718H81.0699ZM79.1348 6.27817V6.12441C79.1348 5.27463 78.5017 4.66967 77.5871 4.66967C76.6725 4.66967 76.0247 5.31914 76.0247 6.27817H79.1348Z" fill="#080808"/>
<path d="M83.0976 4.82549H82.1222V3.43348H85.1233V4.73242C85.6798 3.69651 86.3922 3.20081 87.3511 3.20081C87.6142 3.20081 87.8937 3.24734 88.1871 3.31006V5.01163C87.8937 4.9651 87.6142 4.94891 87.3676 4.94891C85.8192 4.94891 85.1233 5.81487 85.1233 7.67226V9.18764H86.145V10.6262H82.0759V9.18764H83.0976V4.82549Z" fill="#080808"/>
<path d="M35.327 21.0663V21.3537C35.327 24.8336 37.1059 26.8205 40.0624 26.8205C42.3391 26.8205 43.8042 25.7482 44.1442 23.8119H44.8241C44.5367 26.0618 42.8085 27.4214 40.0624 27.4214C36.6343 27.4214 34.5945 25.1715 34.5945 21.2727C34.5945 17.3738 36.7659 15.0471 40.0098 15.0471C43.2537 15.0471 45.1378 17.0886 45.1378 20.6455V21.0643H35.325L35.327 21.0663ZM44.5104 20.516V20.4371C44.5104 17.3233 42.8348 15.5711 40.0624 15.5711C37.29 15.5711 35.4829 17.3496 35.327 20.516H44.5104Z" fill="#080808"/>
<path d="M55.4481 24.6495C54.7156 26.428 53.1189 27.3972 50.9212 27.3972C48.2783 27.3972 46.6816 26.0375 46.6816 23.996C46.6816 21.4589 48.513 20.0972 52.1759 20.0972H55.4461V18.4482C55.4461 16.6434 54.1388 15.5448 51.8359 15.5448C49.533 15.5448 48.252 16.5382 47.8331 18.5797H47.2584C47.7299 16.0951 49.1161 15.0471 51.8379 15.0471C54.5597 15.0471 56.0775 16.3804 56.0775 18.5271V26.5069H58.0404V27.0572H55.4501V24.6495H55.4481ZM52.3074 20.6212C48.9846 20.6212 47.3353 21.641 47.3353 23.8645C47.3353 25.6693 48.6952 26.8468 50.9455 26.8468C53.7705 26.8468 55.4461 25.2241 55.4461 22.1124V20.6212H52.3054H52.3074Z" fill="#080808"/>
<path d="M61.0739 15.8341H58.9814V15.3101H61.677V17.1148C62.4621 15.6763 63.5349 14.9965 65.1049 14.9965C65.34 14.9965 65.7323 15.0228 66.3091 15.0754V15.6763C65.7342 15.5974 65.3153 15.5711 65.0523 15.5711C62.9336 15.5711 61.677 16.9833 61.677 19.6783V26.5069H63.6661V27.0572H59.0867V26.5069H61.0759V15.8341H61.0739Z" fill="#080808"/>
<path d="M71.5933 26.7699C72.8235 26.7699 73.5822 25.829 73.5822 24.1275V24.0485H74.1063V24.2306C74.1063 26.2721 73.1898 27.3708 71.6212 27.3708C69.5549 27.3708 69.4237 25.8533 69.4237 23.4456V15.832H67.0945V15.308H69.4237V12.4835L70.0246 12.2751V15.31H73.9244V15.8341H70.0246V25.042C70.0246 26.1143 70.5994 26.7678 71.5952 26.7678L71.5933 26.7699Z" fill="#080808"/>
<path d="M75.5718 26.5069H77.5347V10.8104L76.4154 10.2864V9.76233L78.1641 10.2864V17.6106C79.002 15.911 80.5193 14.9945 82.5329 14.9945C85.1233 14.9945 86.5094 16.4857 86.5094 19.468V26.5049H88.499V27.0553H83.6845V26.5049H85.882V19.468C85.882 16.773 84.7836 15.4922 82.4017 15.4922C80.0199 15.4922 78.1622 17.1412 78.1622 19.468V26.5049H80.3856V27.0553H75.5718V26.5049V26.5069Z" fill="#080808"/>
<path d="M107.546 31.6904C104.775 31.6904 103.231 30.4927 102.938 28.1497H103.577C103.949 30.1467 105.202 31.0794 107.519 31.0794C110.874 31.0794 112.074 29.4547 112.074 26.1001V24.5564C111.115 26.4461 109.624 27.3788 107.44 27.3788C104.031 27.3788 102.088 25.1957 102.088 21.0682C102.088 16.9408 104.032 14.8103 107.468 14.8103C109.678 14.8103 111.277 15.7693 112.076 17.6064V15.1036H114.82V15.5832H112.69V26.1021C112.69 29.831 111.358 31.6945 107.549 31.6945L107.546 31.6904ZM112.101 21.0663C112.101 17.3111 110.369 15.2878 107.414 15.2878C104.46 15.2878 102.727 17.2585 102.727 21.0137C102.727 24.7688 104.404 26.8447 107.414 26.8447C110.423 26.8447 112.101 24.8477 112.101 21.0663Z" fill="#080808"/>
<path d="M116.732 15.6338H114.602V15.1017H117.346V16.9388C118.145 15.474 119.236 14.782 120.834 14.782C121.073 14.782 121.474 14.8083 122.059 14.8629V15.476C121.474 15.3951 121.047 15.3688 120.78 15.3688C118.622 15.3688 117.343 16.8073 117.343 19.5489V26.4988H119.367V27.0572H114.707V26.4988H116.731V15.6338H116.732Z" fill="#080808"/>
<path d="M121.646 21.0926C121.646 17.1513 123.751 14.8083 127.079 14.8083C130.408 14.8083 132.513 17.1513 132.513 21.0926C132.513 25.0339 130.435 27.3769 127.079 27.3769C123.725 27.3769 121.646 25.0339 121.646 21.0926ZM131.848 21.0663C131.848 17.4183 130.063 15.3141 127.079 15.3141C124.097 15.3141 122.312 17.4183 122.312 21.0663C122.312 24.7142 124.123 26.8185 127.079 26.8185C130.036 26.8185 131.848 24.7142 131.848 21.0663Z" fill="#080808"/>
<path d="M143.991 26.5514H146.256V27.0572H143.38V24.7143C142.528 26.4462 140.956 27.3769 138.906 27.3769C136.269 27.3769 134.885 25.8595 134.885 22.8225V15.6601H132.861V15.1017H135.498V22.8245C135.498 25.5681 136.644 26.8711 139.068 26.8711C141.492 26.8711 143.382 25.1938 143.382 22.8245V15.6622H141.118V15.1037H143.993V26.5534L143.991 26.5514Z" fill="#080808"/>
<path d="M145.829 15.0996H148.466V17.6833C149.558 15.6601 151.022 14.7537 153.234 14.7537C156.324 14.7537 158.454 17.0177 158.454 21.0643C158.454 25.1107 156.457 27.3748 153.073 27.3748C151.024 27.3748 149.637 26.4704 148.466 24.4714V30.8366H150.649V31.3687H145.669V30.8366H147.853V15.6601H145.829V15.1016V15.0996ZM153.126 15.393C150.222 15.393 148.44 17.4709 148.44 21.0643C148.44 24.6576 150.224 26.7638 153.126 26.7638C156.028 26.7638 157.787 24.7142 157.787 21.0643C157.787 17.4143 156.054 15.393 153.126 15.393Z" fill="#080808"/>
<path d="M96.1355 0H95.6399V31.2696H96.1355V0Z" fill="#080808"/>
</g>
</svg>
