<svg width="67" height="65" viewBox="0 0 67 65" fill="none" xmlns="http://www.w3.org/2000/svg">
<path d="M43.0101 12L14 40.9998V52H25.0038L54 22.9999L43.0101 12Z" stroke="#146EF5" stroke-width="2"/>
<path d="M25 52H43" stroke="#146EF5" stroke-width="2"/>
<mask id="path-3-inside-1_4426_26178" fill="white">
<path fill-rule="evenodd" clip-rule="evenodd" d="M38.4756 2.87071C41.304 0.189816 45.7773 0.335048 48.4259 3.19376L64.2941 20.3209C66.9013 23.135 66.7579 27.5233 63.9723 30.161L50.5269 42.8932C53.7604 44.4087 56 47.6928 56 51.5C56 56.7467 51.7467 61 46.5 61H31.4056L31.4054 61.0002H9C6.79086 61.0002 5 59.2094 5 57.0002V39.7598C5 36.4657 6.35414 33.3164 8.74494 31.0504L38.4756 2.87071Z"/>
</mask>
<path d="M48.4259 3.19376L46.9588 4.55303L46.9588 4.55303L48.4259 3.19376ZM38.4756 2.87071L39.8514 4.32227L39.8514 4.32227L38.4756 2.87071ZM64.2941 20.3209L65.7612 18.9616L65.7612 18.9616L64.2941 20.3209ZM63.9723 30.161L65.3475 31.6133L65.3475 31.6133L63.9723 30.161ZM50.5269 42.8932L49.1517 41.441L47.0209 43.4588L49.6781 44.7041L50.5269 42.8932ZM31.4056 61V59H30.6077L30.029 59.5492L31.4056 61ZM31.4054 61.0002V63.0002H32.2032L32.782 62.451L31.4054 61.0002ZM8.74494 31.0504L10.1208 32.5019L10.1208 32.5019L8.74494 31.0504ZM49.893 1.83449C46.4877 -1.841 40.7363 -2.02772 37.0997 1.41914L39.8514 4.32227C41.8717 2.40735 45.0669 2.51109 46.9588 4.55303L49.893 1.83449ZM65.7612 18.9616L49.893 1.83449L46.9588 4.55303L62.827 21.6801L65.7612 18.9616ZM65.3475 31.6133C68.9289 28.2219 69.1134 22.5797 65.7612 18.9616L62.827 21.6801C64.6893 23.6902 64.5868 26.8247 62.5972 28.7088L65.3475 31.6133ZM51.902 44.3454L65.3475 31.6133L62.5972 28.7088L49.1517 41.441L51.902 44.3454ZM49.6781 44.7041C52.2355 45.9027 54 48.4973 54 51.5H58C58 46.8883 55.2854 42.9146 51.3756 41.0822L49.6781 44.7041ZM54 51.5C54 55.6421 50.6421 59 46.5 59V63C52.8513 63 58 57.8513 58 51.5H54ZM46.5 59H31.4056V63H46.5V59ZM32.782 62.451L32.7823 62.4508L30.029 59.5492L30.0287 59.5494L32.782 62.451ZM9 63.0002H31.4054V59.0002H9V63.0002ZM3 57.0002C3 60.3139 5.6863 63.0002 9 63.0002V59.0002C7.89543 59.0002 7 58.1048 7 57.0002H3ZM3 39.7598V57.0002H7V39.7598H3ZM7.36909 29.5988C4.57982 32.2426 3 35.9167 3 39.7598H7C7 37.0147 8.12845 34.3903 10.1208 32.5019L7.36909 29.5988ZM37.0997 1.41914L7.36909 29.5988L10.1208 32.5019L39.8514 4.32227L37.0997 1.41914Z" fill="#D8D8D8" mask="url(#path-3-inside-1_4426_26178)"/>
</svg>
