<svg width="67" height="64" viewBox="0 0 67 64" fill="none" xmlns="http://www.w3.org/2000/svg">
<path fill-rule="evenodd" clip-rule="evenodd" d="M31.2079 4.18125C32.6469 4.89103 34.3556 4.89127 35.7948 4.18182C36.254 3.9555 36.7221 3.74557 37.1985 3.55262C39.7242 2.52959 42.4306 2.00312 45.1631 2.00312C47.8953 2.00312 50.6017 2.52933 53.1274 3.55248M35.7948 4.18182C34.3556 4.89127 32.6469 4.89103 31.2079 4.18125C28.3257 2.75965 25.119 2 21.8342 2C16.3172 2 11.0207 4.14301 7.11145 7.96572C3.20159 11.7893 1 16.9809 1 22.3995C1 27.818 3.20134 33.0095 7.11138 36.8331L7.14475 36.8658L30.7401 59.3672C32.2856 60.841 34.7161 60.8409 36.2614 59.367L59.851 36.8672L59.8825 36.8365C61.8204 34.9438 63.3589 32.6948 64.409 30.2175C65.4589 27.7407 66 25.0847 66 22.4011C66 19.7176 65.4589 17.0615 64.409 14.5846C63.3595 12.1088 61.8223 9.86119 59.8862 7.96936C57.9505 6.07617 55.6534 4.57565 53.1274 3.55248" stroke="#D8D8D8" stroke-width="2" stroke-linecap="round" stroke-linejoin="round"/>
<path d="M48.4255 10.9398C49.9138 11.5584 51.266 12.4649 52.4049 13.6078C53.5446 14.75 54.4488 16.1064 55.0656 17.5994C55.6824 19.0924 56 20.6928 56 22.309C56 23.9253 55.6824 25.5255 55.0656 27.0185C54.4488 28.5116 53.5446 29.868 52.4049 31.0101L33.0004 50L13.5926 31.0101C11.2923 28.7021 10 25.5716 10 22.3074C10 19.0433 11.2923 15.9129 13.5926 13.6048C15.893 11.2967 19.0131 10 22.2661 10C25.5194 10 28.6394 11.2967 30.9396 13.6048L33.0461 15.7098L35.0579 13.6078C36.197 12.4649 37.5492 11.5584 39.0373 10.9398C40.5256 10.3213 42.1205 10.0029 43.7314 10.0029C45.3422 10.0029 46.9374 10.3213 48.4255 10.9398Z" stroke="#146EF5" stroke-width="2" stroke-linecap="round" stroke-linejoin="round"/>
</svg>
