<svg width="64" height="65" viewBox="0 0 64 65" fill="none" xmlns="http://www.w3.org/2000/svg">
<path d="M45.8582 51H44.9911L44.8683 51.8584C43.9673 58.1574 38.5483 63 32 63C25.4517 63 20.0327 58.1574 19.1317 51.8584L19.0089 51H18.1418H18C8.61116 51 1 43.3888 1 34C1 28.4355 3.67245 23.4954 7.80811 20.3926C8.82969 19.6261 9.61012 18.5546 9.98769 17.3104C12.8529 7.8696 21.6255 1 32 1C42.3745 1 51.1471 7.8696 54.0123 17.3104C54.3899 18.5546 55.1703 19.6261 56.1919 20.3926C60.3275 23.4954 63 28.4355 63 34C63 43.3888 55.3888 51 46 51H45.8582Z" stroke="#D8D8D8" stroke-width="2"/>
<path d="M40.5 41.25L32.25 33L24 41.25" stroke="#146EF5" stroke-width="2" stroke-linejoin="round"/>
<path d="M32.25 34.25L32.25 57.25" stroke="#146EF5" stroke-width="2"/>
<path d="M45.5625 44C51.1544 44 55.6875 39.4669 55.6875 33.875C55.6875 28.6472 51.7255 24.3449 46.6404 23.8067C46.6716 23.4169 46.6875 23.0228 46.6875 22.625C46.6875 14.5478 40.1397 8 32.0625 8C23.9853 8 17.4375 14.5478 17.4375 22.625C17.4375 23.0228 17.4534 23.4169 17.4845 23.8067C12.3995 24.3449 8.4375 28.6472 8.4375 33.875M18.5625 44C12.9706 44 8.4375 39.4669 8.4375 33.875M8.4375 33.875C8.4375 28.2831 12.9706 23.75 18.5625 23.75C21.1467 23.75 23.5048 24.7182 25.2939 26.3115" stroke="#146EF5" stroke-width="2"/>
</svg>
