<?xml version="1.0" encoding="utf-8"?>
<!-- Generator: Adobe Illustrator 23.0.0, SVG Export Plug-In . SVG Version: 6.00 Build 0)  -->
<svg version="1.1" id="Layer_1" xmlns="http://www.w3.org/2000/svg" xmlns:xlink="http://www.w3.org/1999/xlink" x="0px" y="0px"
	 viewBox="0 0 722.1 145.6" style="enable-background:new 0 0 722.1 145.6;" xml:space="preserve">
<g>
	<path d="M207.6,41.1c-3.6-0.7-7.1,1.3-10.4,6.2c-2.7,3.8-4.4,7.8-5.3,11.9c-0.5,2.3-0.7,4.8-0.7,7.3c0,2.9,0.6,6,1.8,9.1
		c1.5,3.9,3.5,6,5.9,6.5c2.5,0.5,5.2-0.6,8.1-3.2c3.7-3.3,6.2-8.2,7.6-14.8c0.4-2.3,0.7-4.8,0.7-7.4c0-2.9-0.6-6-1.8-9.1
		C212,43.7,210,41.6,207.6,41.1z"/>
	<path d="M221.8,0H22.7C10.1,0-0.1,10.3,0,22.8v76c0,12.6,10.2,22.8,22.8,22.8h94.3l43.1,24l-9.8-24h71.4
		c12.6,0,22.8-10.2,22.8-22.8v-76C244.6,10.2,234.4,0,221.8,0z M100.1,100.1c0.2,2.5-0.2,4.7-1.2,6.6c-1.2,2.2-3,3.4-5.3,3.6
		c-2.6,0.2-5.3-1-7.9-3.7C76.4,97.1,69,82.9,63.6,64c-6.5,12.8-11.3,22.4-14.4,28.8c-5.9,11.3-10.9,17.1-15.1,17.4
		c-2.7,0.2-5-2.1-7-6.9C22,90.2,16.5,64.9,10.6,27.4c-0.3-2.6,0.2-4.9,1.6-6.7c1.4-1.9,3.5-2.9,6.3-3.1c5.1-0.4,8,2,8.7,7.2
		c3.1,20.9,6.5,38.6,10.1,53.1l21.9-41.7c2-3.8,4.5-5.8,7.5-6c4.4-0.3,7.1,2.5,8.2,8.4c2.5,13.3,5.7,24.6,9.5,34.2
		c2.6-25.4,7-43.7,13.2-55c1.5-2.8,3.7-4.2,6.6-4.4c2.3-0.2,4.4,0.5,6.3,2s2.9,3.4,3.1,5.7c0.1,1.8-0.2,3.3-1,4.8
		c-3.9,7.2-7.1,19.3-9.7,36.1C100.4,78.3,99.5,91,100.1,100.1z M161.5,84.4c-6,10-13.8,15-23.5,15c-1.7,0-3.5-0.2-5.4-0.6
		c-7.1-1.5-12.4-5.3-16-11.6c-3.2-5.5-4.8-12.1-4.8-19.8c0-10.3,2.6-19.7,7.8-28.2c6.1-10,13.9-15,23.5-15c1.7,0,3.5,0.2,5.4,0.6
		c7,1.5,12.4,5.3,16,11.6c3.2,5.4,4.8,11.9,4.8,19.7C169.3,66.4,166.7,75.8,161.5,84.4z M224.2,84.4c-6,10-13.8,15-23.5,15
		c-1.7,0-3.5-0.2-5.4-0.6c-7.1-1.5-12.4-5.3-16-11.6c-3.2-5.5-4.8-12.1-4.8-19.8c0-10.3,2.6-19.7,7.8-28.2c6.1-10,13.9-15,23.5-15
		c1.7,0,3.5,0.2,5.4,0.6c7.1,1.5,12.4,5.3,16,11.6c3.2,5.4,4.8,11.9,4.8,19.7C232,66.4,229.4,75.8,224.2,84.4z"/>
	<path d="M144.9,41.1c-3.6-0.7-7.1,1.3-10.4,6.2c-2.7,3.8-4.4,7.8-5.3,11.9c-0.5,2.3-0.7,4.8-0.7,7.3c0,2.9,0.6,6,1.8,9.1
		c1.5,3.9,3.5,6,5.9,6.5c2.5,0.5,5.2-0.6,8.1-3.2c3.7-3.3,6.2-8.2,7.6-14.8c0.5-2.3,0.7-4.8,0.7-7.4c0-2.9-0.6-6-1.8-9.1
		C149.3,43.7,147.3,41.6,144.9,41.1z"/>
	<path d="M269.9,35.5c-6.7,6.6-10,15-10,25.2c0,10.9,3.3,19.8,9.9,26.5c6.6,6.7,15.2,10.1,25.9,10.1c3.1,0,6.6-0.5,10.4-1.6V79.5
		c-3.5,1-6.5,1.5-9.1,1.5c-5.3,0-9.5-1.8-12.7-5.3c-3.2-3.6-4.8-8.4-4.8-14.5c0-5.7,1.6-10.4,4.7-14c3.2-3.7,7.1-5.5,11.9-5.5
		c3.1,0,6.4,0.5,10,1.5V27c-3.3-0.9-7-1.3-10.9-1.3C285,25.6,276.6,28.9,269.9,35.5z"/>
	<path d="M629.7,57.9c1.9-3.1,2.9-6.3,2.9-9.6c0-6.4-2.5-11.5-7.5-15.2s-11.9-5.6-20.5-5.6h-21.4v68.1h18.4v-31h0.3l14.9,31h19.4
		l-14.7-30.7C625,63.3,627.8,61,629.7,57.9z M601.5,56.8V40.6c4.4,0.1,7.5,0.8,9.4,2.2c1.9,1.4,2.8,3.6,2.8,6.8
		C613.7,54.3,609.6,56.7,601.5,56.8z"/>
	<path d="M339.3,25.6c-9.2,0-16.4,3.1-21.6,9.2S310,49.5,310,60.5c0,11.9,2.6,21,7.7,27.3c5.1,6.3,12.6,9.5,22.4,9.5
		c9.5,0,16.8-3.2,21.9-9.5s7.7-15.2,7.7-26.6c0-11.4-2.6-20.2-7.8-26.4C356.6,28.7,349.1,25.6,339.3,25.6z M347.2,77.6
		c-1.8,2.8-4.5,4.2-7.9,4.2c-3.2,0-5.6-1.4-7.3-4.2s-2.5-8.4-2.5-16.9c0-13.1,3.3-19.6,10-19.6c7,0,10.6,6.6,10.6,19.9
		C350,69.2,349,74.8,347.2,77.6z"/>
	<path d="M643.4,35.5c-6.7,6.6-10,15-10,25.2c0,10.9,3.3,19.8,9.9,26.5c6.6,6.7,15.2,10.1,25.9,10.1c3.1,0,6.6-0.5,10.4-1.6V79.5
		c-3.5,1-6.5,1.5-9.1,1.5c-5.3,0-9.5-1.8-12.7-5.3c-3.2-3.6-4.8-8.4-4.8-14.5c0-5.7,1.6-10.4,4.7-14c3.2-3.7,7.1-5.5,11.9-5.5
		c3.1,0,6.4,0.5,10,1.5V27c-3.3-0.9-7-1.3-10.9-1.3C658.6,25.6,650.1,28.9,643.4,35.5z"/>
	<polygon points="703.1,81.1 703.1,81 703.1,68.6 719.4,68.6 719.4,54.5 703.1,54.5 703.1,42 722,42 722,27.5 684.8,27.5 
		684.8,95.6 722.1,95.6 722.1,81.1 	"/>
	<polygon points="559,68.7 575.3,68.7 575.3,54.6 559,54.6 559,42.1 577.8,42.1 577.8,27.6 540.6,27.6 540.6,95.7 577.9,95.7 
		577.9,81.2 559,81.2 	"/>
	<path d="M419.1,27.5L419.1,27.5l-3.6,15.3c-0.9,3.9-1.8,7.9-2.6,12l-2,10.6c-1.9-10.6-4.5-23.2-7.8-37.9h-23.2l-8.7,68.1h17.4
		l4.7-46.9l11.9,46.9h12.4L429,48.8l4.9,46.8h18.2l-9.2-68.1H419.1z"/>
	<path d="M502.4,27.5l-3.6,15.3c-0.9,3.9-1.8,7.9-2.6,12l-2,10.6c-1.9-10.6-4.5-23.2-7.8-37.9h-23.2l-8.7,68.1h17.4l4.7-46.9
		l11.9,46.9h12.4l11.3-46.8l4.9,46.8h18.2l-9.2-68.1H502.4z"/>
</g>
</svg>
