<svg width="105" height="29" viewBox="0 0 105 29" fill="none" xmlns="http://www.w3.org/2000/svg">
<mask id="mask0_4426_34788" style="mask-type:luminance" maskUnits="userSpaceOnUse" x="0" y="0" width="105" height="28">
<path d="M104.797 0.430298H0.202972V27.9713H104.797V0.430298Z" fill="white"/>
</mask>
<g mask="url(#mask0_4426_34788)">
<path d="M11.774 0.430298C19.1398 0.430298 23.345 5.44284 23.345 11.8746C23.345 18.3063 19.5572 23.3615 11.774 23.3615C3.99087 23.3615 0.202972 18.181 0.202972 11.8746C0.202972 5.56822 4.69794 0.430298 11.774 0.430298ZM11.774 19.8109C15.8941 19.8109 18.4327 16.3857 18.4327 11.8746C18.4327 7.36356 15.8916 3.89827 11.774 3.89827C7.65649 3.89827 5.11528 7.36356 5.11528 11.8746C5.11528 16.3857 7.65383 19.8109 11.774 19.8109ZM31.2105 22.6919C31.293 22.8574 31.2531 22.9 31.1707 23.0254C30.8358 23.5269 30.1712 24.0284 29.1717 24.0284C27.8799 24.0284 27.0904 23.3589 26.5481 23.0681C26.2983 22.9427 25.966 22.9027 25.7586 23.1508L23.9272 25.1569C23.5923 25.4503 23.5923 25.9092 23.9272 26.2C25.0941 27.3284 27.5901 28.078 29.3791 27.9553C33.2494 27.6192 34.4163 25.4904 36.5376 20.7286L43.1138 6.02706C43.3213 5.56822 42.9491 5.0667 42.4892 5.0667H38.7013C38.4089 5.0667 38.159 5.27478 38.0341 5.56822L33.6216 17.5141C33.5391 17.7221 33.2468 17.7221 33.1643 17.5141L28.5019 5.56822C28.377 5.27478 28.167 5.0667 27.8772 5.0667H24.0495C23.5498 5.0667 23.2148 5.56822 23.3823 6.02706C23.4646 6.02706 31.083 22.4412 31.2053 22.6946L31.2105 22.6919ZM52.1463 23.3615C56.8514 23.3615 59.762 21.0647 59.762 17.8475C59.762 11.165 47.5264 13.1257 47.5264 9.40969C47.5264 8.32392 48.5232 7.65434 50.2298 7.65434C52.5185 7.65434 54.7248 8.6147 56.0566 10.4527C56.2639 10.7462 56.6387 10.8288 56.9311 10.6608L59.2198 9.40702C59.5945 9.19892 59.7195 8.78012 59.4697 8.44663C57.4707 5.52288 53.8503 4.43713 50.4372 4.43713C46.0272 4.43713 43.0288 6.60861 43.0288 9.90853C43.0288 16.7591 54.8896 14.4596 54.8896 17.9275C54.8896 19.0132 54.2224 19.7228 52.351 19.7228C50.1049 19.7228 48.0634 18.9279 46.6492 17.3433C46.4419 17.0925 46.1921 16.7164 45.7349 16.9245L42.4892 18.3863C42.1144 18.5517 42.032 18.9705 42.3244 19.304C45.4849 23.0628 49.233 23.3562 52.1463 23.3562V23.3615ZM59.4297 5.40016L64.6318 0.931819C65.089 0.555678 65.6711 0.931819 65.6711 1.30796V4.984C65.6711 5.02669 65.7137 5.0667 65.7536 5.0667H70.4585C70.8333 5.0667 71.1656 5.40283 71.1656 5.7763V7.8224C71.1656 8.20121 70.8333 8.532 70.4585 8.532H65.7536C65.7137 8.532 65.6711 8.57468 65.6711 8.6147V15.3799C65.6711 16.5083 65.7536 19.5148 68.2097 19.4321C68.9593 19.4321 69.709 19.224 70.291 18.9305C70.4558 18.8479 70.7058 18.8906 70.8307 19.0959L72.5373 21.6462C72.6621 21.8543 72.6196 22.1051 72.4123 22.2304C70.6658 23.3589 67.8349 23.5243 66.2533 23.2309C63.0901 22.604 60.8838 20.8913 60.8838 16.0895V8.82548C60.8838 8.3666 60.7588 8.07316 60.4691 7.7397L59.2597 6.32051C59.0098 6.02706 59.1347 5.65092 59.4271 5.40283L59.4297 5.40016ZM80.323 4.4398C86.3598 4.39712 89.4806 8.49198 89.6053 14.4649C89.6449 14.841 89.3127 15.1744 88.9383 15.1744H76.1178C75.9929 15.1744 75.9529 15.2572 75.9529 15.3399C76.4102 18.429 78.1592 19.8909 80.658 19.8909C82.9041 19.8909 84.2359 18.5971 84.9854 17.3433C85.1104 17.0925 85.4028 16.9672 85.6926 17.0498L88.9805 18.0102C89.3153 18.0929 89.4805 18.469 89.3558 18.8025C88.1061 21.5609 84.8206 23.3562 80.658 23.3562C74.4963 23.3562 71.0832 19.5548 71.0832 13.7073C71.0832 7.85975 75.2034 4.43446 80.323 4.43446V4.4398ZM76.0779 12.1253L84.6931 12.0853C84.7356 12.0853 84.8179 12.0853 84.7754 11.92C84.3183 9.32965 82.8191 7.74237 80.323 7.74237C77.827 7.74237 76.3277 9.66307 75.9529 11.9627C75.9131 12.128 76.0354 12.128 76.0779 12.128V12.1253ZM104.629 7.48894C104.836 7.7397 104.879 8.11584 104.587 8.3666L102.088 10.4554C101.796 10.7062 101.421 10.6635 101.173 10.3727C100.799 9.87117 100.092 8.91077 98.8428 8.91077C97.8857 8.95346 96.9708 9.24694 96.2212 10.4554C95.6816 11.2504 95.5146 12.168 95.5146 13.1284V22.1504C95.5146 22.5266 95.222 22.82 94.8476 22.82H91.3516C90.9772 22.82 90.6846 22.5266 90.6846 22.1504V5.7763C90.6846 5.40016 90.9772 5.0667 91.3516 5.0667H93.5153C93.8079 5.0667 94.0575 5.1494 94.1823 5.6109L94.6428 7.36356C94.6824 7.44626 94.8071 7.48894 94.8924 7.40625C95.5172 6.40321 96.8065 4.984 99.2628 4.77326C101.593 4.60786 103.175 5.65092 104.632 7.48894H104.629Z" fill="#080808"/>
</g>
</svg>
